<?xml version="1.0" encoding="UTF-8" standalone="no"?>
<svg
   xmlns:dc="http://purl.org/dc/elements/1.1/"
   xmlns:cc="http://creativecommons.org/ns#"
   xmlns:rdf="http://www.w3.org/1999/02/22-rdf-syntax-ns#"
   xmlns:svg="http://www.w3.org/2000/svg"
   xmlns="http://www.w3.org/2000/svg"
   xmlns:sodipodi="http://sodipodi.sourceforge.net/DTD/sodipodi-0.dtd"
   xmlns:inkscape="http://www.inkscape.org/namespaces/inkscape"
   id="svg12"
   version="1.1"
   viewBox="0 0 36 36"
   sodipodi:docname="cartridge.svg"
   inkscape:version="0.92.3 (2405546, 2018-03-11)">
  <sodipodi:namedview
     pagecolor="#ffffff"
     bordercolor="#666666"
     borderopacity="1"
     objecttolerance="10"
     gridtolerance="10"
     guidetolerance="10"
     inkscape:pageopacity="0"
     inkscape:pageshadow="2"
     inkscape:window-width="1920"
     inkscape:window-height="1048"
     id="namedview14"
     showgrid="false"
     inkscape:zoom="6.5555556"
     inkscape:cx="18"
     inkscape:cy="-7.5529522"
     inkscape:window-x="0"
     inkscape:window-y="32"
     inkscape:window-maximized="1"
     inkscape:current-layer="svg12" />
  <metadata
     id="metadata18">
    <rdf:RDF>
      <cc:Work
         rdf:about="">
        <dc:format>image/svg+xml</dc:format>
        <dc:type
           rdf:resource="http://purl.org/dc/dcmitype/StillImage" />
        <dc:title />
      </cc:Work>
    </rdf:RDF>
  </metadata>
  <defs
     id="defs16" />
  <path
     id="rect1031"
     d="M 4.5 2 A 0.5 0.5 0 0 0 4 2.5 L 4 3 L 4 33 L 4 33.5 A 0.5 0.5 0 0 0 4.5 34 L 5 34 L 29 34 L 31 34 L 31.5 34 A 0.5 0.5 0 0 0 32 33.5 L 32 33 L 32 5 L 32 4.5 A 0.5 0.5 0 0 0 31.5 4 L 31 4 L 29 4 L 29 3 L 29 2.5 A 0.5 0.5 0 0 0 28.5 2 L 28 2 L 5 2 L 4.5 2 z "
     style="opacity:1;fill:#b3b3b3;fill-opacity:1;stroke:none;stroke-width:25;stroke-miterlimit:4;stroke-dasharray:none;stroke-opacity:1" />
  <path
     id="path1064"
     d="M 8 11 A 1 1 0 0 0 7 12 L 7 29 A 1 1 0 0 0 8 30 L 28 30 A 1 1 0 0 0 29 29 L 29 12 A 1 1 0 0 0 28 11 L 8 11 z "
     style="opacity:1;fill:#999999;fill-opacity:1;stroke:none;stroke-width:25;stroke-miterlimit:4;stroke-dasharray:none;stroke-opacity:1" />
  <path
     id="path1077"
     d="M 10 4 A 3 3 0 0 0 7 7 A 3 3 0 0 0 10 10 L 26 10 A 3 3 0 0 0 29 7 A 3 3 0 0 0 26 4 L 10 4 z M 16 31 L 18 33 L 20 31 L 16 31 z "
     style="opacity:1;fill:#999999;fill-opacity:1;stroke:none;stroke-width:25;stroke-miterlimit:4;stroke-dasharray:none;stroke-opacity:1" />
</svg>
