<?xml version="1.0" encoding="UTF-8" standalone="no"?>
<svg
   xmlns:dc="http://purl.org/dc/elements/1.1/"
   xmlns:cc="http://creativecommons.org/ns#"
   xmlns:rdf="http://www.w3.org/1999/02/22-rdf-syntax-ns#"
   xmlns:svg="http://www.w3.org/2000/svg"
   xmlns="http://www.w3.org/2000/svg"
   xmlns:sodipodi="http://sodipodi.sourceforge.net/DTD/sodipodi-0.dtd"
   xmlns:inkscape="http://www.inkscape.org/namespaces/inkscape"
   id="svg16"
   version="1.1"
   viewBox="0 0 36 36"
   sodipodi:docname="dmg.svg"
   inkscape:version="0.92.3 (2405546, 2018-03-11)">
  <sodipodi:namedview
     pagecolor="#ffffff"
     bordercolor="#666666"
     borderopacity="1"
     objecttolerance="10"
     gridtolerance="10"
     guidetolerance="10"
     inkscape:pageopacity="0"
     inkscape:pageshadow="2"
     inkscape:window-width="1920"
     inkscape:window-height="1047"
     id="namedview11"
     showgrid="true"
     inkscape:zoom="18.541911"
     inkscape:cx="18"
     inkscape:cy="18"
     inkscape:window-x="0"
     inkscape:window-y="33"
     inkscape:window-maximized="1"
     inkscape:current-layer="svg16">
    <inkscape:grid
       type="xygrid"
       id="grid13"
       empspacing="4" />
  </sodipodi:namedview>
  <metadata
     id="metadata22">
    <rdf:RDF>
      <cc:Work
         rdf:about="">
        <dc:format>image/svg+xml</dc:format>
        <dc:type
           rdf:resource="http://purl.org/dc/dcmitype/StillImage" />
        <dc:title></dc:title>
      </cc:Work>
    </rdf:RDF>
  </metadata>
  <defs
     id="defs20" />
  <path
     style="fill:#d6dade;fill-opacity:1;stroke:none;stroke-width:2;stroke-linecap:butt;stroke-linejoin:miter;stroke-miterlimit:4;stroke-dasharray:none;stroke-opacity:1"
     d="M 8 0 C 6.895431 0 6 0.8954305 6 2 L 6 34 C 6 35.104569 6.895431 36 8 36 L 24 36 A 6 6 0 0 0 30 30 L 30 2 C 30 0.8954305 29.104569 0 28 0 L 8 0 z "
     id="path13" />
  <circle
     id="circle854"
     r="1.603"
     cy="26.396999"
     cx="21.603001"
     style="fill:#b14789;fill-opacity:1" />
  <path
     id="path900"
     d="m 11.710934,21.02339 c -0.279,0 -0.505859,0.22686 -0.505859,0.50586 -8.4e-5,0.900476 3.71e-4,1.799172 -0.002,2.697265 H 8.5058594 C 8.2268594,24.226515 8,24.451422 8,24.730422 v 1.558593 c 0,0.279 0.2268594,0.50586 0.5058594,0.50586 h 2.1679686 c 0.171849,0.0045 0.353917,0.0013 0.529297,0.002 v 2.697266 c 0,0.279 0.226859,0.505859 0.505859,0.505859 h 1.558594 c 0.279,0 0.503906,-0.226859 0.503906,-0.505859 l 0.0019,-2.697266 h 2.699219 c 0.279,0 0.505859,-0.226859 0.505859,-0.505859 v -1.558594 c 0,-0.279 -0.226859,-0.503906 -0.505859,-0.503906 -0.901133,-8.5e-5 -1.800467,3.67e-4 -2.699219,-0.002 v -2.697265 c 0,-0.279 -0.226859,-0.50586 -0.505859,-0.50586 z"
     style="fill:#000000" />
  <circle
     style="fill:#b14789;fill-opacity:1"
     cx="26.396999"
     cy="24.603001"
     r="1.603"
     id="circle915" />
  <path
     id="path1129"
     d="M 9 2 A 1 1 0 0 0 8 3 L 8 16 A 1 1 0 0 0 9 17 L 26 17 A 2 2 0 0 0 28 15 L 28 3 A 1 1 0 0 0 27 2 L 9 2 z "
     style="fill:#76818c;fill-opacity:1;stroke:none;stroke-width:2;stroke-linecap:butt;stroke-linejoin:miter;stroke-miterlimit:4;stroke-dasharray:none;stroke-opacity:1" />
  <rect
     y="4"
     x="12"
     height="11"
     width="12"
     id="rect1000"
     style="fill:#8aa100;fill-opacity:1;stroke:none;stroke-width:2;stroke-linecap:butt;stroke-linejoin:miter;stroke-miterlimit:4;stroke-dasharray:none;stroke-opacity:1" />
</svg>
