<?xml version="1.0" encoding="UTF-8" standalone="no"?>
<svg
   xmlns:dc="http://purl.org/dc/elements/1.1/"
   xmlns:cc="http://creativecommons.org/ns#"
   xmlns:rdf="http://www.w3.org/1999/02/22-rdf-syntax-ns#"
   xmlns:svg="http://www.w3.org/2000/svg"
   xmlns="http://www.w3.org/2000/svg"
   xmlns:sodipodi="http://sodipodi.sourceforge.net/DTD/sodipodi-0.dtd"
   xmlns:inkscape="http://www.inkscape.org/namespaces/inkscape"
   viewBox="0 0 36 36"
   version="1.1"
   id="svg16"
   sodipodi:docname="oxy.svg"
   inkscape:version="0.92.3 (2405546, 2018-03-11)"
   inkscape:export-filename="/home/rowan/Documents/Game Boy Emotes/oxy.png"
   inkscape:export-xdpi="960"
   inkscape:export-ydpi="960">
  <metadata
     id="metadata22">
    <rdf:RDF>
      <cc:Work
         rdf:about="">
        <dc:format>image/svg+xml</dc:format>
        <dc:type
           rdf:resource="http://purl.org/dc/dcmitype/StillImage" />
        <dc:title></dc:title>
      </cc:Work>
    </rdf:RDF>
  </metadata>
  <defs
     id="defs20" />
  <sodipodi:namedview
     pagecolor="#ffffff"
     bordercolor="#666666"
     borderopacity="1"
     objecttolerance="10"
     gridtolerance="10"
     guidetolerance="10"
     inkscape:pageopacity="0"
     inkscape:pageshadow="2"
     inkscape:window-width="1920"
     inkscape:window-height="1014"
     id="namedview18"
     showgrid="true"
     inkscape:zoom="13.111111"
     inkscape:cx="18.390032"
     inkscape:cy="18.943094"
     inkscape:window-x="0"
     inkscape:window-y="30"
     inkscape:window-maximized="1"
     inkscape:current-layer="svg16">
    <inkscape:grid
       type="xygrid"
       id="grid24"
       empspacing="4"
       spacingx="1"
       spacingy="1" />
  </sodipodi:namedview>
  <style
     id="style942"
     type="text/css">
	.st0{fill:#B7B7B7;stroke:#B7B7B7;}
	.st1{fill:#7F7FB2;}
	.st2{fill:#B7B7B7;}
	.st3{fill:#686868;}
	.st4{fill:#00CC99;}
	.st5{fill:#545475;}
</style>
  <style
     id="style123">.s0{fill:#FFF;stroke:#000;}.s1{fill:#0C9;}.s2{fill:#FFF;}</style>
  <path
     style="fill:#b3b3b3;fill-opacity:1;stroke:none;stroke-width:0.25;stroke-linecap:butt;stroke-linejoin:miter;stroke-miterlimit:4;stroke-dasharray:none;stroke-opacity:1"
     d="M 3.3043438,19.126953 C 2.5208723,19.417452 2.0005744,20.164407 1.9996562,21 v 13 c 9.182e-4,0.835593 0.5212161,1.582548 1.3046876,1.873047 11.0024912,-1.800956 18.1295312,-1.860267 29.3932892,0 C 33.480335,35.581905 33.999752,34.835096 34.000367,34 V 21 c -6.15e-4,-0.835096 -0.520032,-1.581905 -1.302734,-1.873047 -11.190359,1.851099 -18.32042,1.810268 -29.3932892,0 z"
     id="rect5106"
     inkscape:connector-curvature="0"
     sodipodi:nodetypes="ccccccccc" />
  <rect
     y="23"
     x="11"
     height="9"
     width="14"
     id="rect4958"
     style="fill:#14171a;fill-opacity:1;stroke:none;stroke-width:0.25;stroke-linecap:butt;stroke-linejoin:miter;stroke-miterlimit:4;stroke-dasharray:none;stroke-opacity:1" />
  <path
     style="fill:#14171a;fill-opacity:1"
     d="m 31.396484,25 a 1.603,1.603 0 0 0 -1.601562,1.603516 1.603,1.603 0 0 0 1.601562,1.601562 A 1.603,1.603 0 0 0 33,26.603516 1.603,1.603 0 0 0 31.396484,25 Z m -3.792968,1.794922 A 1.603,1.603 0 0 0 26,28.396484 1.603,1.603 0 0 0 27.603516,30 1.603,1.603 0 0 0 29.205078,28.396484 1.603,1.603 0 0 0 27.603516,26.794922 Z"
     id="circle854"
     inkscape:connector-curvature="0" />
  <path
     style="fill:#14171a;fill-opacity:1;stroke-width:0.77964354"
     d="m 5.8932058,24.001444 c -0.2175205,0 -0.3943897,0.17687 -0.3943897,0.39439 -6.56e-5,0.70205 2.892e-4,1.402714 -0.00156,2.102905 H 3.3943897 C 3.1768692,26.498739 3,26.674087 3,26.891607 v 1.215148 c 0,0.21752 0.1768692,0.39439 0.3943897,0.39439 h 1.690243 c 0.133981,0.0035 0.2759292,10e-4 0.4126631,0.0016 v 2.102906 C 5.4972958,30.823131 5.6741649,31 5.8916855,31 h 1.2151477 c 0.2175206,0 0.3928671,-0.176869 0.3928671,-0.39439 l 0.00148,-2.102906 h 2.10443 C 9.8231308,28.502704 10,28.325835 10,28.108315 v -1.215148 c 0,-0.217521 -0.1768692,-0.392868 -0.3943897,-0.392868 -0.7025625,-6.5e-5 -1.4037225,2.87e-4 -2.1044287,-0.0016 v -2.102905 c 0,-0.21752 -0.1768691,-0.39439 -0.3943897,-0.39439 z"
     id="path900"
     inkscape:connector-curvature="0"
     sodipodi:nodetypes="scccssscccsscccsscccss" />
</svg>
